{
    "asset": {
        "copyright": "2020 (c) Adobe Inc.",
        "generator": "Adobe Dimension - 3de52ae4ccc0c25be48106335282fae5a6a58dee",
        "version": "2.0"
    },
    "accessors": [
        {
            "bufferView": 0,
            "componentType": 5126,
            "count": 248,
            "type": "VEC3",
            "max": [
                0.0060500698164105419,
                0.0044266399927437309,
                -0.00330446008592844
            ],
            "min": [
                -0.08721233159303665,
                -0.005826229695230722,
                -0.1501207947731018
            ]
        },
        {
            "bufferView": 1,
            "componentType": 5126,
            "count": 248,
            "type": "VEC3"
        },
        {
            "bufferView": 2,
            "componentType": 5126,
            "count": 248,
            "type": "VEC2"
        },
        {
            "bufferView": 3,
            "componentType": 5125,
            "count": 948,
            "type": "SCALAR",
            "max": [
                247.0
            ],
            "min": [
                0.0
            ]
        }
    ],
    "bufferViews": [
        {
            "buffer": 0,
            "byteOffset": 0,
            "byteLength": 2976,
            "target": 34962
        },
        {
            "buffer": 0,
            "byteOffset": 2976,
            "byteLength": 2976,
            "target": 34962
        },
        {
            "buffer": 0,
            "byteOffset": 5952,
            "byteLength": 1984,
            "target": 34962
        },
        {
            "buffer": 0,
            "byteOffset": 7936,
            "byteLength": 3792,
            "target": 34963
        }
    ],
    "buffers": [
        {
            "byteLength": 11728,
            "uri": "Untitled_binary.bin"
        }
    ],
    "cameras": [
        {
            "perspective": {
                "znear": 0.000010000000656873454,
                "yfov": 0.534271240234375,
                "zfar": 2.0,
                "aspectRatio": 1.5135135650634766
            },
            "type": "perspective",
            "name": "render_camera"
        }
    ],
    "images": [
        {
            "name": "composited_baseColor_opacity",
            "uri": "Untitled_images/composited_baseColor_opacity.png",
            "mimeType": "image/png"
        },
        {
            "name": "composited_roughness",
            "uri": "Untitled_images/composited_roughness.png",
            "mimeType": "image/png"
        }
    ],
    "materials": [
        {
            "pbrMetallicRoughness": {
                "baseColorTexture": {
                    "index": 0
                },
                "metallicFactor": 0.0,
                "metallicRoughnessTexture": {
                    "index": 1
                }
            },
            "alphaMode": "MASK",
            "name": "Matte",
            "doubleSided": true
        }
    ],
    "meshes": [
        {
            "name": "pCube1",
            "primitives": [
                {
                    "attributes": {
                        "POSITION": 0,
                        "NORMAL": 1,
                        "TEXCOORD_0": 2
                    },
                    "indices": 3,
                    "material": 0
                }
            ]
        }
    ],
    "nodes": [
        {
            "translation": [
                -0.12663674354553224,
                0.5798508524894714,
                -0.7765362858772278
            ],
            "rotation": [
                -0.030350472778081895,
                0.9679103493690491,
                0.20338770747184754,
                0.14443634450435639
            ],
            "camera": 0,
            "name": "render_camera_n3d"
        },
        {
            "translation": [
                -0.24243499338626862,
                0.18725024163722993,
                -0.27516111731529238
            ],
            "rotation": [
                0.25959888100624087,
                0.7052191495895386,
                -0.4352782964706421,
                0.49578943848609927
            ],
            "scale": [
                1.5011403560638428,
                1.6580711603164673,
                1.9752579927444459
            ],
            "mesh": 0,
            "name": "pCube1"
        }
    ],
    "samplers": [
        {},
        {}
    ],
    "scenes": [
        {
            "nodes": [
                0,
                1
            ],
            "name": "scene"
        }
    ],
    "textures": [
        {
            "name": "composited_baseColor_opacity",
            "sampler": 0,
            "source": 0
        },
        {
            "name": "composited_roughness",
            "sampler": 1,
            "source": 1
        }
    ],
    "scene": 0
}